<?xml version="1.0" encoding="UTF-8"?>
<svg version="1.1" xmlns="http://www.w3.org/2000/svg" width="500" height="500">
<path d="M0 0 C11.06003317 10.46219354 16.48883642 25.1919777 17.3125 40.1875 C17.37695312 41.14011719 17.44140625 42.09273437 17.5078125 43.07421875 C18.14349267 60.30115129 12.39925928 75.06371495 0.8515625 87.80078125 C-4.8896241 93.19749666 -10.85210247 97.17069388 -18.125 100.1875 C-18.9205127 100.52144775 -19.71602539 100.85539551 -20.53564453 101.19946289 C-32.76018046 106.08158887 -45.80945927 108.63826821 -58.6875 111.1875 C-59.27183137 118.3812993 -59.7391616 125.54167736 -59.8984375 132.7578125 C-59.94097656 134.62566406 -59.94097656 134.62566406 -59.984375 136.53125 C-60.03726203 139.09098232 -60.0812753 141.65091076 -60.1171875 144.2109375 C-60.148125 145.44328125 -60.1790625 146.675625 -60.2109375 147.9453125 C-60.23075684 149.0502002 -60.25057617 150.15508789 -60.27099609 151.29345703 C-60.75220974 154.63713029 -61.08529024 156.00948608 -63.6875 158.1875 C-66.43739826 158.58102653 -68.78264498 158.72528175 -71.53125 158.68359375 C-72.29675171 158.68504898 -73.06225342 158.68650421 -73.85095215 158.68800354 C-75.46821908 158.68634473 -77.08550183 158.67478523 -78.70263672 158.65405273 C-81.17874164 158.6251024 -83.65270501 158.63344138 -86.12890625 158.64648438 C-87.70053124 158.64024666 -89.27214947 158.63185545 -90.84375 158.62109375 C-91.58443726 158.62402939 -92.32512451 158.62696503 -93.08825684 158.62998962 C-98.12122465 158.53757865 -98.12122465 158.53757865 -100.39076233 157.13452148 C-102.38817537 154.13545221 -102.04138288 151.10617742 -101.94116211 147.63110352 C-101.9293563 146.84400529 -101.91755049 146.05690706 -101.90538692 145.24595737 C-101.8552055 142.55873447 -101.77558954 139.87374193 -101.6875 137.1875 C-101.65619617 136.22992168 -101.62489235 135.27234337 -101.59263992 134.28574753 C-101.32465883 126.55136243 -100.97916074 118.82086232 -100.62890625 111.08984375 C-100.51889071 108.60040125 -100.40919122 106.11094477 -100.29978943 103.62147522 C-100.07099662 98.43333104 -99.83965185 93.24530969 -99.60620117 88.05737305 C-99.30902037 81.45252983 -99.01635993 74.84749668 -98.72538853 68.24237728 C-98.44484393 61.87896084 -98.16192254 55.51565065 -97.87890625 49.15234375 C-97.82620638 47.96260389 -97.77350651 46.77286404 -97.71920967 45.54707146 C-97.43014497 39.03897387 -97.13270512 32.53138374 -96.82091141 26.02433395 C-96.69418843 23.32972155 -96.5774204 20.63481777 -96.46139526 17.93972778 C-96.38757934 16.39802032 -96.31317359 14.85634093 -96.23803711 13.31469727 C-96.17917831 12.01758316 -96.12031952 10.72046906 -96.05967712 9.38404846 C-95.71532978 6.42652392 -95.33171665 4.63850246 -93.6875 2.1875 C-89.12567873 -0.37894519 -83.54331685 -0.96093083 -78.453125 -1.94140625 C-77.46052673 -2.13596909 -76.46792847 -2.33053192 -75.44525146 -2.5309906 C-73.34775298 -2.94092365 -71.24977821 -3.34842619 -69.15136719 -3.75366211 C-65.96159562 -4.37034159 -62.77370243 -4.99608692 -59.5859375 -5.62304688 C-57.54177278 -6.02137827 -55.4975051 -6.41918176 -53.453125 -6.81640625 C-52.50906799 -7.00183487 -51.56501099 -7.18726349 -50.59234619 -7.37831116 C-32.00539933 -10.94827282 -16.23985651 -10.95246137 0 0 Z M-46.5625 31.125 C-47.44164062 31.32029297 -48.32078125 31.51558594 -49.2265625 31.71679688 C-51.38262258 32.1972233 -53.53587255 32.68766235 -55.6875 33.1875 C-55.97596756 37.17080739 -56.26064648 41.15436669 -56.54199219 45.13818359 C-56.68489813 47.15085561 -56.83070349 49.16332109 -56.9765625 51.17578125 C-57.42346943 57.52824404 -57.81747045 63.81894771 -57.6875 70.1875 C-46.67503639 69.62754422 -35.75687788 65.92497545 -27.6875 58.1875 C-24.23115187 54.06218127 -23.54615076 49.45899515 -23.6875 44.1875 C-24.51697104 39.5122996 -25.74762623 35.51628706 -28.5 31.625 C-34.29660486 27.81580252 -40.27942807 29.66305028 -46.5625 31.125 Z M-89.6875 116.1875 C-90.9375128 118.6875256 -91.05142833 120.78022193 -91.3125 123.5625 C-91.40789062 124.51898438 -91.50328125 125.47546875 -91.6015625 126.4609375 C-91.68071385 128.97219396 -91.44227651 130.81051725 -90.6875 133.1875 C-91.3475 133.1875 -92.0075 133.1875 -92.6875 133.1875 C-94.1894035 138.98055637 -95.00852765 144.19498387 -94.6875 150.1875 C-94.3575 150.5175 -94.0275 150.8475 -93.6875 151.1875 C-92.0375 151.1875 -90.3875 151.1875 -88.6875 151.1875 C-88.6875 139.6375 -88.6875 128.0875 -88.6875 116.1875 C-89.0175 116.1875 -89.3475 116.1875 -89.6875 116.1875 Z " fill="#FDBD5A" transform="translate(413.6875,162.8125)"/>
<path d="M0 0 C1.21300781 0.00515625 2.42601562 0.0103125 3.67578125 0.015625 C4.94550781 0.03625 6.21523437 0.056875 7.5234375 0.078125 C9.39322266 0.08585938 9.39322266 0.08585938 11.30078125 0.09375 C28.72406183 0.24093716 28.72406183 0.24093716 32.8984375 2.328125 C33.8523874 5.1899747 34.02999591 6.99171942 34.04370117 9.96264648 C34.05311989 11.38162483 34.05311989 11.38162483 34.06272888 12.82926941 C34.06394241 13.85885269 34.06515594 14.88843597 34.06640625 15.94921875 C34.07064102 17.0242012 34.07487579 18.09918365 34.07923889 19.20674133 C34.08919549 22.72640814 34.08914552 26.24594648 34.0859375 29.765625 C34.08533325 30.96328491 34.084729 32.16094482 34.08410645 33.39489746 C33.95374238 128.39214311 33.95374238 128.39214311 10.86328125 153.453125 C-1.04411976 164.81605241 -15.93114413 169.66500285 -32.15820312 169.3046875 C-46.50967327 168.7230223 -58.23743444 164.7845472 -68.4140625 154.140625 C-76.93945486 143.30326183 -79.32568709 128.15292014 -79.59765625 114.75390625 C-79.1015625 112.328125 -79.1015625 112.328125 -77.37841797 110.71923828 C-70.33821906 106.41781716 -58.89285878 108.20486088 -50.9140625 108.265625 C-49.19993164 108.27239258 -49.19993164 108.27239258 -47.45117188 108.27929688 C-44.6679114 108.29094232 -41.88476678 108.30729503 -39.1015625 108.328125 C-37.2848121 112.75997245 -36.09595754 117.1515057 -34.98046875 121.8046875 C-34.05815733 124.45274607 -33.31947327 125.64822229 -31.1015625 127.328125 C-27.18014025 128.02526673 -25.47864869 127.55129846 -22.0390625 125.515625 C-11.63989421 115.82611124 -11.50909144 98.34147381 -11.02249908 85.19145966 C-10.88177623 80.29135491 -10.79735978 75.39028715 -10.71713638 70.48887253 C-10.67090634 67.73128275 -10.61805551 64.97389226 -10.5632019 62.21646118 C-10.4076049 54.38747611 -10.2557674 46.5584895 -10.12744141 38.72900391 C-10.04807413 33.91564931 -9.95454733 29.10275054 -9.85161972 24.28984451 C-9.81523231 22.46147015 -9.78418628 20.6329814 -9.75857925 18.80442429 C-9.72241884 16.26026009 -9.66825853 13.71707679 -9.60986328 11.17333984 C-9.60351868 10.41908722 -9.59717407 9.66483459 -9.59063721 8.88772583 C-9.44808939 3.83003796 -9.44808939 3.83003796 -7.74279785 1.3600769 C-5.18965713 -0.24524949 -2.98581042 -0.02536649 0 0 Z " fill="#826C61" transform="translate(133.1015625,151.671875)"/>
<path d="M0 0 C0.78703308 0.0020192 1.57406616 0.00403839 2.38494873 0.00611877 C4.62223259 0.00869016 4.62223259 0.00869016 6.80987549 -0.22621155 C8.87988281 -0.27172852 8.87988281 -0.27172852 12.62988281 0.97827148 C19.40753358 10.87805996 23.24810302 23.75641744 27.81738281 34.79077148 C28.63143644 36.74861993 29.4458868 38.70630347 30.26074219 40.66381836 C31.40843607 43.42094226 32.55560285 46.17826812 33.69950867 48.93696594 C34.21067986 50.16941292 34.21067986 50.16941292 34.73217773 51.42675781 C35.2127211 52.59218613 35.2127211 52.59218613 35.70297241 53.78115845 C36.29951427 55.19517851 36.91610346 56.60099288 37.55703735 57.99545288 C39.60051169 62.45490335 39.71109389 65.1619676 38.62988281 69.97827148 C31.78456336 72.57792401 25.30841424 72.34614799 18.06738281 72.35327148 C16.75318359 72.37776367 15.43898438 72.40225586 14.08496094 72.42749023 C12.18713867 72.43329102 12.18713867 72.43329102 10.25097656 72.43920898 C9.10040771 72.44742676 7.94983887 72.45564453 6.7644043 72.46411133 C2.80263873 71.85005155 1.37296921 70.90029222 -1.37011719 67.97827148 C-2.94867014 65.32270438 -4.15666549 62.55526132 -5.35839844 59.71264648 C-5.88049141 58.52254974 -5.88049141 58.52254974 -6.41313171 57.30841064 C-7.51577912 54.78705369 -8.59936932 52.25801489 -9.68261719 49.72827148 C-10.42941863 48.01158332 -11.17745245 46.29543071 -11.92675781 44.57983398 C-13.75553975 40.38538048 -15.56728123 36.18393835 -17.37011719 31.97827148 C-18.36011719 31.97827148 -19.35011719 31.97827148 -20.37011719 31.97827148 C-20.63131348 32.83420898 -20.89250977 33.69014648 -21.16162109 34.57202148 C-22.40855644 38.08661581 -23.94259407 41.19402392 -25.70605469 44.47827148 C-26.02667877 45.07704102 -26.34730286 45.67581055 -26.67764282 46.29272461 C-27.35281958 47.55110269 -28.03029564 48.80824954 -28.70996094 50.06420898 C-29.74061537 51.96994737 -30.76292878 53.87998056 -31.78417969 55.79077148 C-40.29407926 71.61959218 -40.29407926 71.61959218 -44.37011719 72.97827148 C-49.7010543 73.21005136 -55.03651631 73.07605937 -60.37011719 72.97827148 C-61.28003418 72.96570313 -62.18995117 72.95313477 -63.12744141 72.94018555 C-65.98023457 72.89251739 -68.83074736 72.81439352 -71.68261719 72.72827148 C-72.59575684 72.71425293 -73.50889648 72.70023437 -74.44970703 72.68579102 C-80.76209306 72.44716217 -80.76209306 72.44716217 -83.53808594 70.30639648 C-84.74023832 66.94262737 -84.42929525 65.43558855 -83.37011719 61.97827148 C-81.68813586 58.521687 -79.75627639 55.22766315 -77.80761719 51.91577148 C-76.62614409 49.87122936 -75.44654871 47.82560135 -74.26855469 45.77905273 C-73.63916992 44.68802246 -73.00978516 43.59699219 -72.36132812 42.47290039 C-70.24858089 38.78456502 -68.19923805 35.06265652 -66.15917969 31.33374023 C-65.80700882 30.690634 -65.45483795 30.04752777 -65.09199524 29.38493347 C-63.69845952 26.83810612 -62.30608957 24.29067816 -60.9201355 21.73971558 C-60.59288483 21.13773346 -60.26563416 20.53575134 -59.9284668 19.91552734 C-59.44852013 19.03238861 -59.44852013 19.03238861 -58.95887756 18.13140869 C-58.01968703 16.42977252 -57.04653241 14.74702343 -56.07275391 13.06494141 C-54.33526697 10.08976852 -54.33526697 10.08976852 -53.31201172 7.16699219 C-51.98315626 4.1410838 -51.14253165 2.82447637 -48.37011719 0.97827148 C-41.46358974 -0.66200093 -34.1646214 -0.18770515 -27.12011719 -0.08422852 C-25.1604711 -0.08730615 -23.20082695 -0.09442817 -21.24121094 -0.10571289 C-16.78507589 -0.1227998 -12.33120046 -0.09427977 -7.87536621 -0.04568481 C-5.2501888 -0.02058171 -2.62529035 -0.00622834 0 0 Z " fill="#826C62" transform="translate(256.3701171875,248.021728515625)"/>
<path d="M0 0 C3.52297832 1.45535389 6.39481765 3.73394512 9.39013672 6.05664062 C10.70241346 7.05693358 12.01491162 8.05693614 13.32763672 9.05664062 C14.2615625 9.77400391 14.2615625 9.77400391 15.21435547 10.50585938 C17.94966692 12.55273289 20.82695235 14.39751147 23.72998047 16.19726562 C24.95263672 17.80664062 24.95263672 17.80664062 25.49169922 21.00585938 C24.77256503 26.07627654 22.62535281 28.52999276 19.39013672 32.36914062 C11.75797884 41.84383971 4.99584916 51.83503848 -1.76318359 61.94335938 C-3.04736328 63.80664062 -3.04736328 63.80664062 -4.04736328 64.80664062 C-6.11166326 64.92712074 -8.18011356 64.97689932 -10.24780273 64.99951172 C-10.89501282 65.00768921 -11.5422229 65.0158667 -12.20904541 65.02429199 C-14.35956892 65.04918625 -16.51002621 65.06567301 -18.66064453 65.08007812 C-19.76055253 65.08806364 -19.76055253 65.08806364 -20.88268089 65.09621048 C-24.76463146 65.12296098 -28.64654967 65.14232876 -32.52856445 65.15673828 C-36.54058874 65.17338147 -40.55179076 65.21814952 -44.56350422 65.26910973 C-47.64587861 65.30275547 -50.72805737 65.31431273 -53.81059837 65.31996536 C-55.28942325 65.32668657 -56.76823487 65.34193151 -58.24688148 65.36585617 C-60.3181828 65.3974546 -62.3872615 65.3975545 -64.45874023 65.39013672 C-65.63708939 65.39822357 -66.81543854 65.40631042 -68.02949524 65.41464233 C-71.04736328 64.80664062 -71.04736328 64.80664062 -73.34967041 62.45162964 C-75.18663724 59.58965315 -76.9055342 56.7095581 -78.54345703 53.72851562 C-78.85887955 53.15764221 -79.17430206 52.5867688 -79.49928284 51.99859619 C-80.49893443 50.18702404 -81.49202928 48.3719564 -82.48486328 46.55664062 C-83.47292748 44.76161294 -84.46228992 42.96730704 -85.45205688 41.17321777 C-86.40309786 39.44394315 -87.3461493 37.7102823 -88.2890625 35.9765625 C-89.37783998 34.01367902 -90.49874138 32.0677995 -91.66894531 30.15234375 C-92.36866455 28.99895508 -92.36866455 28.99895508 -93.08251953 27.82226562 C-93.48994385 27.18063477 -93.89736816 26.53900391 -94.31713867 25.87792969 C-95.41756037 22.75657306 -95.08650977 20.93322662 -94.04736328 17.80664062 C-91.45874023 15.65673828 -91.45874023 15.65673828 -88.03564453 13.72070312 C-87.42980026 13.37405609 -86.82395599 13.02740906 -86.19975281 12.67025757 C-84.91824145 11.9430248 -83.63100069 11.22580852 -82.33862305 10.51806641 C-80.37021775 9.43732568 -78.42450131 8.32252299 -76.47900391 7.20117188 C-65.21484427 0.86159239 -65.21484427 0.86159239 -60.04736328 1.80664062 C-56.97391268 4.84816908 -55.03957748 8.39185231 -53.02392578 12.19335938 C-52.47736328 13.21494141 -51.93080078 14.23652344 -51.36767578 15.2890625 C-50.80822266 16.34673828 -50.24876953 17.40441406 -49.67236328 18.49414062 C-45.65356989 26.05754735 -41.53644618 33.51061196 -37.04736328 40.80664062 C-33.66639753 37.52967055 -31.08920139 34.06358586 -28.54736328 30.11914062 C-24.68955973 24.23338556 -20.73203112 18.43012528 -16.67236328 12.68164062 C-16.17285156 11.97177002 -15.67333984 11.26189941 -15.15869141 10.53051758 C-6.31883987 -1.95532535 -6.31883987 -1.95532535 0 0 Z " fill="#826D62" transform="translate(279.04736328125,152.193359375)"/>
<path d="M0 0 C0.99 0.33 1.98 0.66 3 1 C4.1875 4.0625 4.1875 4.0625 5 7 C7.34058637 4.87219421 8.70700306 2.88437779 10 0 C10.99 0 11.98 0 13 0 C13 4.62 13 9.24 13 14 C12.01 14 11.02 14 10 14 C9.67 13.01 9.34 12.02 9 11 C8.01 12.485 8.01 12.485 7 14 C4 13 4 13 3 12 C2.67 12.66 2.34 13.32 2 14 C1.01 13.67 0.02 13.34 -1 13 C-1.02696365 11.20841511 -1.04637917 9.41671527 -1.0625 7.625 C-1.07410156 6.62726563 -1.08570313 5.62953125 -1.09765625 4.6015625 C-1 2 -1 2 0 0 Z " fill="#62554D" transform="translate(206,226)"/>
<path d="M0 0 C2.31966166 2.84685749 3.91581154 5.4763875 5 9 C4.67 9.99 4.34 10.98 4 12 C4 12.99 4 13.98 4 15 C4 15.99 4 16.98 4 18 C2.35 18.33 0.7 18.66 -1 19 C-1 18.34 -1 17.68 -1 17 C-1.99 17 -2.98 17 -4 17 C-4 15.68 -4 14.36 -4 13 C-4.99 13.33 -5.98 13.66 -7 14 C-7.33 13.01 -7.66 12.02 -8 11 C-7.67 10.34 -7.34 9.68 -7 9 C-3.9375 8.375 -3.9375 8.375 -1 8 C-1 7.34 -1 6.68 -1 6 C-0.34 6 0.32 6 1 6 C1 5.01 1 4.02 1 3 C0.34 3 -0.32 3 -1 3 C-1.33 3.99 -1.66 4.98 -2 6 C-2.99 6.33 -3.98 6.66 -5 7 C-5.33 6.01 -5.66 5.02 -6 4 C-5.34 3.34 -4.68 2.68 -4 2 C-2.68 2 -1.36 2 0 2 C0 1.34 0 0.68 0 0 Z " fill="#776559" transform="translate(279,274)"/>
<path d="M0 0 C6.15234375 -0.09765625 6.15234375 -0.09765625 8 0 C9.73956658 1.73956658 9.37190386 4.1936622 9.5625 6.5625 C9.64628906 7.57441406 9.73007812 8.58632812 9.81640625 9.62890625 C9.87699219 10.41136719 9.93757813 11.19382813 10 12 C6.55892734 14.29404844 5.03160191 14.26293056 1 14 C0 13 0 13 -0.09765625 10.05859375 C-0.08605469 8.86363281 -0.07445312 7.66867188 -0.0625 6.4375 C-0.05347656 5.23996094 -0.04445312 4.04242188 -0.03515625 2.80859375 C-0.02355469 1.88175781 -0.01195312 0.95492187 0 0 Z M3 3 C3 3.66 3 4.32 3 5 C4.32 5 5.64 5 7 5 C7 4.34 7 3.68 7 3 C5.68 3 4.36 3 3 3 Z M3 8 C3 8.99 3 9.98 3 11 C4.32 11 5.64 11 7 11 C7 10.01 7 9.02 7 8 C5.68 8 4.36 8 3 8 Z " fill="#76695F" transform="translate(255,226)"/>
<path d="M0 0 C3 0.5 3 0.5 4.875 2.125 C6.33486373 5.20693454 6.49214954 7.12526031 6 10.5 C4.375 12.9375 4.375 12.9375 2 14.5 C-1.125 14.4375 -1.125 14.4375 -4 13.5 C-6.32579101 10.01131349 -6.41865457 8.60281481 -6 4.5 C-4.42104751 1.16665585 -3.67116043 0.61186007 0 0 Z M-1 2.5 C-3.34973818 4.39755144 -3.34973818 4.39755144 -3.125 7.625 C-3.08375 8.57375 -3.0425 9.5225 -3 10.5 C-0.525 10.995 -0.525 10.995 2 11.5 C3.29042763 9.23398135 3.29042763 9.23398135 4 6.5 C2.8727078 4.13517472 2.8727078 4.13517472 1 2.5 C0.34 2.5 -0.32 2.5 -1 2.5 Z " fill="#77675E" transform="translate(230,225.5)"/>
<path d="M0 0 C0.33 0 0.66 0 1 0 C1 3.63 1 7.26 1 11 C1.66 11 2.32 11 3 11 C3 11.66 3 12.32 3 13 C3.66 13.33 4.32 13.66 5 14 C4.01 14.495 4.01 14.495 3 15 C3 17.64 3 20.28 3 23 C2.34 23 1.68 23 1 23 C1.02320313 23.84304688 1.04640625 24.68609375 1.0703125 25.5546875 C1.08835937 26.65039062 1.10640625 27.74609375 1.125 28.875 C1.14820313 29.96554687 1.17140625 31.05609375 1.1953125 32.1796875 C1 35 1 35 -1 37 C-1.02953391 33.08334973 -1.04697503 29.16672887 -1.0625 25.25 C-1.07087891 24.15816406 -1.07925781 23.06632812 -1.08789062 21.94140625 C-1.10968394 14.5752663 -0.7350759 7.32921225 0 0 Z " fill="#F3BF75" transform="translate(314,262)"/>
<path d="M0 0 C3.3 0 6.6 0 10 0 C8.96532992 4.1386803 7.43050464 6.55025148 5 10 C6.65 10.33 8.3 10.66 10 11 C10 11.99 10 12.98 10 14 C7.03 14 4.06 14 1 14 C1 9.28093812 2.28754204 7.72962969 5 4 C2.525 3.01 2.525 3.01 0 2 C0 1.34 0 0.68 0 0 Z " fill="#6B6056" transform="translate(240,226)"/>
<path d="M0 0 C2.34375 1.88671875 2.34375 1.88671875 4 4 C3.75 6.25 3.75 6.25 3 8 C2.46375 7.195625 1.9275 6.39125 1.375 5.5625 C-1.55876383 2.39712323 -2.75825582 2.31862867 -7 2 C-10.77259571 2.51920428 -10.77259571 2.51920428 -14.625 3.4375 C-18.49228913 4.30916261 -21.99993155 5 -26 5 C-26 7.31 -26 9.62 -26 12 C-28.29013653 8.5647952 -28.17842973 7.014669 -28 3 C-7.14816616 -1.44556864 -7.14816616 -1.44556864 0 0 Z " fill="#F4BB76" transform="translate(384,191)"/>
<path d="M0 0 C0.33 0 0.66 0 1 0 C1 4.29 1 8.58 1 13 C1.66 13 2.32 13 3 13 C3.33 14.32 3.66 15.64 4 17 C15.55 17 27.1 17 39 17 C38.67 17.66 38.34 18.32 38 19 C33.07042741 19.07414321 28.14117919 19.12859817 23.21118164 19.16479492 C21.5340408 19.17988384 19.85693943 19.20035748 18.17993164 19.22631836 C15.76959496 19.26269811 13.35977981 19.27972486 10.94921875 19.29296875 C10.19912033 19.30845261 9.44902191 19.32393646 8.67619324 19.33988953 C3.52743175 19.34155501 3.52743175 19.34155501 1.02148438 17.71875 C-0.78367783 14.68138338 -0.3040888 11.23542755 -0.1875 7.8125 C-0.17396484 7.06291016 -0.16042969 6.31332031 -0.14648438 5.54101562 C-0.11118539 3.69370233 -0.05737917 1.84675934 0 0 Z " fill="#EBBF7B" transform="translate(312,302)"/>
<path d="M0 0 C0.99 0 1.98 0 3 0 C4.6875 2 4.6875 2 6 4 C6.66 2.68 7.32 1.36 8 0 C8.99 0 9.98 0 11 0 C10.28269264 3.23165844 9.18684926 6.18707922 7.9375 9.25 C7.57527344 10.14203125 7.21304687 11.0340625 6.83984375 11.953125 C6.56269531 12.62859375 6.28554688 13.3040625 6 14 C5.34 13.67 4.68 13.34 4 13 C3.47548629 11.03307359 2.95772309 9.06344477 2.5078125 7.078125 C1.90432592 4.60847223 1.01794707 2.32673617 0 0 Z " fill="#685B53" transform="translate(269,226)"/>
<path d="M0 0 C0.99 0 1.98 0 3 0 C3 4.62 3 9.24 3 14 C2.01 14 1.02 14 0 14 C-0.33 12.35 -0.66 10.7 -1 9 C-1.66 9 -2.32 9 -3 9 C-2.44271087 5.65626525 -1.64826111 2.96687001 0 0 Z " fill="#72635A" transform="translate(216,226)"/>
<path d="M0 0 C0.66 0 1.32 0 2 0 C1.8460376 0.81549316 1.6920752 1.63098633 1.53344727 2.47119141 C0.92992659 6.46354283 0.67026987 10.43353464 0.46484375 14.4609375 C0.42186661 15.25150543 0.37888947 16.04207336 0.33460999 16.8565979 C0.19909774 19.36257498 0.06822846 21.86876928 -0.0625 24.375 C-0.15398947 26.08204775 -0.24578317 27.78907923 -0.33789062 29.49609375 C-0.56211446 33.66388241 -0.7821768 37.83187212 -1 42 C-1.33 42 -1.66 42 -2 42 C-2.09586385 31.42990423 -2.17797874 20.86906988 -1.5625 10.3125 C-1.50364624 9.26364624 -1.50364624 9.26364624 -1.44360352 8.19360352 C-1.25231874 5.25310491 -0.93723584 2.81170753 0 0 Z " fill="#F2C27B" transform="translate(319,166)"/>
<path d="M0 0 C-0.33 0.66 -0.66 1.32 -1 2 C-2.98 2 -4.96 2 -7 2 C-7 2.66 -7 3.32 -7 4 C-7.66 4 -8.32 4 -9 4 C-9.33 4.66 -9.66 5.32 -10 6 C-12.01822917 5.70703125 -14.03645833 5.4140625 -16.0546875 5.12109375 C-18.08140667 4.8315703 -18.08140667 4.8315703 -20 6 C-22.6723621 6.13415472 -25.32250488 6.04318541 -28 6 C-25.16012969 4.10675313 -23.74493247 3.57315171 -20.5078125 2.9296875 C-19.63769531 2.75566406 -18.76757812 2.58164063 -17.87109375 2.40234375 C-16.96488281 2.22832031 -16.05867188 2.05429688 -15.125 1.875 C-14.22652344 1.69324219 -13.32804687 1.51148438 -12.40234375 1.32421875 C-8.18466114 0.49563413 -4.31302196 -0.09847955 0 0 Z " fill="#F4C376" transform="translate(350,159)"/>
<path d="M0 0 C2.64 0 5.28 0 8 0 C4.33205882 3.23243365 0.23255335 4.56153308 -4.3125 6.125 C-5.04662109 6.38925781 -5.78074219 6.65351563 -6.53710938 6.92578125 C-11.03608965 8.49862795 -15.26090829 9.48665057 -20 10 C-19 8 -19 8 -16.015625 6.96484375 C-14.77296875 6.62582031 -13.5303125 6.28679687 -12.25 5.9375 C-11.01765625 5.59589844 -9.7853125 5.25429688 -8.515625 4.90234375 C-5.68321545 4.17535863 -2.87398443 3.5320162 0 3 C0 2.01 0 1.02 0 0 Z " fill="#F5C06F" transform="translate(391,260)"/>
<path d="M0 0 C6.2932626 4.02768806 11.57701852 8.73105557 14 16 C13.34 16 12.68 16 12 16 C10.6273318 14.02678947 9.29572383 12.02456848 8 10 C5.8614515 7.8614515 4.86724686 7.57344937 2 7 C1.855625 6.401875 1.71125 5.80375 1.5625 5.1875 C1.1127561 3.43849596 0.57107659 1.71322977 0 0 Z " fill="#F3C581" transform="translate(409,160)"/>
<path d="M0 0 C0.66 0 1.32 0 2 0 C2 1.65 2 3.3 2 5 C2.66 4.67 3.32 4.34 4 4 C3.67 4.99 3.34 5.98 3 7 C1.35 7.33 -0.3 7.66 -2 8 C-2 7.34 -2 6.68 -2 6 C-2.66 6 -3.32 6 -4 6 C-3.67 4.68 -3.34 3.36 -3 2 C-2.34 2.33 -1.68 2.66 -1 3 C-0.67 2.01 -0.34 1.02 0 0 Z " fill="#705C4F" transform="translate(280,285)"/>
<path d="M0 0 C2.15377564 2.62198774 3.40072174 4.64404172 4 8 C2.68 7.67 1.36 7.34 0 7 C0.33 5.68 0.66 4.36 1 3 C0.34 3 -0.32 3 -1 3 C-1.33 3.99 -1.66 4.98 -2 6 C-2.99 6.33 -3.98 6.66 -5 7 C-5.33 6.01 -5.66 5.02 -6 4 C-5.34 3.34 -4.68 2.68 -4 2 C-2.68 2 -1.36 2 0 2 C0 1.34 0 0.68 0 0 Z " fill="#6F5E55" transform="translate(279,274)"/>
<path d="M0 0 C2.31 0.33 4.62 0.66 7 1 C7.33 2.65 7.66 4.3 8 6 C7.34 6 6.68 6 6 6 C5.67 4.68 5.34 3.36 5 2 C3.68 2.99 2.36 3.98 1 5 C0.34 4.01 -0.32 3.02 -1 2 C-0.67 1.34 -0.34 0.68 0 0 Z M-2 4 C-1.34 4 -0.68 4 0 4 C-0.33 4.66 -0.66 5.32 -1 6 C-1.33 5.34 -1.66 4.68 -2 4 Z " fill="#706056" transform="translate(159,153)"/>
<path d="M0 0 C5.78591511 -0.10477512 11.29309366 0.00749455 17 1 C15.875 2.5625 15.875 2.5625 14 4 C10.8125 3.6875 10.8125 3.6875 8 3 C8 2.34 8 1.68 8 1 C5.36 1 2.72 1 0 1 C0 0.67 0 0.34 0 0 Z " fill="#634A37" transform="translate(251,248)"/>
<path d="M0 0 C0.99 0 1.98 0 3 0 C1.6302836 3.99500618 -0.25722422 6.80009492 -3 10 C-2.25 3.375 -2.25 3.375 0 0 Z " fill="#F5BC75" transform="translate(421,236)"/>
<path d="M0 0 C0.99 0.33 1.98 0.66 3 1 C3.33 3.31 3.66 5.62 4 8 C2.68 8 1.36 8 0 8 C0 5.36 0 2.72 0 0 Z " fill="#544641" transform="translate(205,231)"/>
<path d="M0 0 C2.475 0.99 2.475 0.99 5 2 C5.33 4.97 5.66 7.94 6 11 C2.90407165 7.4912812 1.25805377 4.50802601 0 0 Z " fill="#77675F" transform="translate(194,192)"/>
<path d="M0 0 C2.74801432 2.37328509 3.71082173 4.6481365 5 8 C5.66 8.66 6.32 9.32 7 10 C6.67 10.66 6.34 11.32 6 12 C5.34 12 4.68 12 4 12 C3.32332002 10.75539217 2.65905281 9.50403104 2 8.25 C1.62875 7.55390625 1.2575 6.8578125 0.875 6.140625 C0 4 0 4 0 0 Z " fill="#75675C" transform="translate(184,172)"/>
<path d="M0 0 C0.99 0.33 1.98 0.66 3 1 C3.33 3.31 3.66 5.62 4 8 C2.35 6.35 0.7 4.7 -1 3 C-0.67 2.01 -0.34 1.02 0 0 Z " fill="#72635B" transform="translate(206,226)"/>
<path d="M0 0 C0.33 0.66 0.66 1.32 1 2 C1.66 2 2.32 2 3 2 C3.33 2.66 3.66 3.32 4 4 C6.52733235 4.65555119 6.52733235 4.65555119 9 5 C9 5.33 9 5.66 9 6 C3.58461538 6.36923077 3.58461538 6.36923077 0.625 4.5 C0.08875 4.005 -0.4475 3.51 -1 3 C-0.67 2.01 -0.34 1.02 0 0 Z " fill="#714B43" transform="translate(257,314)"/>
<path d="M0 0 C0.66 0.33 1.32 0.66 2 1 C-0.64 3.64 -3.28 6.28 -6 9 C-6 5.37546731 -5.07530387 3.92079805 -3 1 C-2.01 0.67 -1.02 0.34 0 0 Z " fill="#EDBF77" transform="translate(416,246)"/>
<path d="M0 0 C1.32 0 2.64 0 4 0 C4.33 0.99 4.66 1.98 5 3 C2.69 3.33 0.38 3.66 -2 4 C-1.34 2.68 -0.68 1.36 0 0 Z " fill="#F7C26B" transform="translate(364,268)"/>
<path d="M0 0 C1.65 0 3.3 0 5 0 C4.34 0.66 3.68 1.32 3 2 C2.59952556 4.32275177 2.2602896 6.65739357 2 9 C-0.29013653 5.5647952 -0.17842973 4.014669 0 0 Z " fill="#F6BE6A" transform="translate(356,194)"/>
<path d="M0 0 C0.33 0.66 0.66 1.32 1 2 C1.99 2.33 2.98 2.66 4 3 C2.68 4.32 1.36 5.64 0 7 C-0.66 6.67 -1.32 6.34 -2 6 C-1.34 4.02 -0.68 2.04 0 0 Z " fill="#77655B" transform="translate(214,313)"/>
<path d="M0 0 C0.99 0 1.98 0 3 0 C5 3 5 3 4.625 5.1875 C4.41875 5.785625 4.2125 6.38375 4 7 C0 2.25 0 2.25 0 0 Z " fill="#776861" transform="translate(269,226)"/>
<path d="M0 0 C2.97 0.495 2.97 0.495 6 1 C5.34 2.32 4.68 3.64 4 5 C1.525 4.01 1.525 4.01 -1 3 C-0.67 2.01 -0.34 1.02 0 0 Z " fill="#78645B" transform="translate(254,177)"/>
<path d="M0 0 C2.32472205 2.85306797 3.7508258 5.54074837 5 9 C4.01 9 3.02 9 2 9 C0.50178941 5.62902617 0 3.79557881 0 0 Z " fill="#75665D" transform="translate(226,166)"/>
<path d="M0 0 C1.66666667 0 3.33333333 0 5 0 C5 0.66 5 1.32 5 2 C2.625 3.6875 2.625 3.6875 0 5 C-0.66 4.67 -1.32 4.34 -2 4 C-1.34 2.68 -0.68 1.36 0 0 Z " fill="#6B5B53" transform="translate(132,309)"/>
<path d="M0 0 C0.99 0.33 1.98 0.66 3 1 C3 2.65 3 4.3 3 6 C2.01 6 1.02 6 0 6 C0 4.02 0 2.04 0 0 Z " fill="#736259" transform="translate(273,233)"/>
<path d="" fill="#000000" transform="translate(0,0)"/>
</svg>
