<?xml version="1.0" encoding="UTF-8"?>
<!DOCTYPE svg PUBLIC "-//W3C//DTD SVG 1.1//EN" "http://www.w3.org/Graphics/SVG/1.1/DTD/svg11.dtd">
<svg xmlns="http://www.w3.org/2000/svg" version="1.1" width="500px" height="500px" style="shape-rendering:geometricPrecision; text-rendering:geometricPrecision; image-rendering:optimizeQuality; fill-rule:evenodd; clip-rule:evenodd" xmlns:xlink="http://www.w3.org/1999/xlink">
<g><path style="opacity:1" fill="#826c62" d="M 126.5,151.5 C 138.869,151.216 151.202,151.716 163.5,153C 164.849,153.772 165.682,154.939 166,156.5C 166.748,180.848 166.415,205.181 165,229.5C 164.85,251.409 160.517,272.409 152,292.5C 136.898,315.325 115.732,324.158 88.5,319C 66.6729,312.909 55.1729,298.409 54,275.5C 50.7995,263.03 55.6329,257.863 68.5,260C 76.8333,259.333 85.1667,259.333 93.5,260C 94.9156,264.402 96.0823,268.902 97,273.5C 102.4,281.346 108.066,281.346 114,273.5C 118.141,266.743 120.475,259.41 121,251.5C 122.434,219.185 123.434,186.851 124,154.5C 124.698,153.309 125.531,152.309 126.5,151.5 Z"/></g>
<g><path style="opacity:0.999" fill="#826d62" d="M 273.5,150.5 C 284.008,155.678 293.842,162.011 303,169.5C 303.667,171.833 303.667,174.167 303,176.5C 293.113,189.387 283.613,202.554 274.5,216C 252.167,216.667 229.833,216.667 207.5,216C 199.035,202.909 191.202,189.409 184,175.5C 183.244,173.191 183.744,171.191 185.5,169.5C 194.5,164.333 203.5,159.167 212.5,154C 214.5,153.333 216.5,153.333 218.5,154C 226.333,167.167 234.167,180.333 242,193.5C 252.044,178.706 262.544,164.373 273.5,150.5 Z"/></g>
<g><path style="opacity:0.997" fill="#fdbd5b" d="M 379.5,152.5 C 404.961,152.144 421.128,164.144 428,188.5C 436.226,228.898 420.726,255.065 381.5,267C 372.245,269.651 363.079,271.484 354,272.5C 353.012,287.151 352.345,301.818 352,316.5C 351.535,317.931 350.701,319.097 349.5,320C 337.833,320.667 326.167,320.667 314.5,320C 313.667,319.167 312.833,318.333 312,317.5C 311.833,314.5 311.667,311.5 311.5,308.5C 313.376,260.763 315.876,213.096 319,165.5C 320.648,164.283 322.481,163.45 324.5,163C 342.962,159.406 361.295,155.906 379.5,152.5 Z M 376.5,191.5 C 381.456,191.619 384.956,193.952 387,198.5C 392.142,212.718 387.642,222.552 373.5,228C 367.734,230.441 361.734,231.941 355.5,232.5C 356.374,220.179 357.041,207.846 357.5,195.5C 364.108,194.904 370.442,193.57 376.5,191.5 Z M 323.5,278.5 C 324.257,289.911 324.59,301.578 324.5,313.5C 320.077,314.575 318.077,312.908 318.5,308.5C 319.055,303.281 320.388,298.281 322.5,293.5C 322.012,288.529 322.345,283.529 323.5,278.5 Z"/></g>
<g><path style="opacity:0.705" fill="#77695f" d="M 254.5,225.5 C 257.448,225.223 260.281,225.556 263,226.5C 263.361,229.525 263.861,232.525 264.5,235.5C 263.602,238.294 261.602,239.628 258.5,239.5C 257.228,239.43 256.062,239.097 255,238.5C 254.501,234.179 254.334,229.846 254.5,225.5 Z M 257.5,228.5 C 258.978,228.238 260.311,228.571 261.5,229.5C 260.833,229.833 260.167,230.167 259.5,230.5C 258.287,230.253 257.62,229.586 257.5,228.5 Z M 257.5,233.5 C 258.833,233.5 260.167,233.5 261.5,233.5C 261.5,234.5 261.5,235.5 261.5,236.5C 260.167,236.5 258.833,236.5 257.5,236.5C 257.5,235.5 257.5,234.5 257.5,233.5 Z"/></g>
<g><path style="opacity:0.231" fill="#6e5e56" d="M 209.5,238.5 C 209.313,236.436 208.813,234.436 208,232.5C 207.322,234.598 207.489,236.598 208.5,238.5C 207.312,239.684 206.145,239.684 205,238.5C 204.551,234.242 204.718,230.242 205.5,226.5C 206.002,225.479 206.668,225.312 207.5,226C 208.708,228.25 210.041,230.417 211.5,232.5C 213.422,230.997 214.588,228.997 215,226.5C 216.011,225.663 217.178,225.33 218.5,225.5C 218.5,230.167 218.5,234.833 218.5,239.5C 217.5,239.5 216.5,239.5 215.5,239.5C 215.662,237.473 215.495,235.473 215,233.5C 214.55,235.519 213.717,237.352 212.5,239C 211.423,239.47 210.423,239.303 209.5,238.5 Z M 209.5,238.5 C 209.167,238.5 208.833,238.5 208.5,238.5C 207.489,236.598 207.322,234.598 208,232.5C 208.813,234.436 209.313,236.436 209.5,238.5 Z"/></g>
<g><path style="opacity:0.965" fill="#73645b" d="M 268.5,225.5 C 271.168,226.099 273.002,227.766 274,230.5C 275.084,229.335 275.917,228.002 276.5,226.5C 277.325,225.614 278.325,225.281 279.5,225.5C 277.394,230.047 275.561,234.714 274,239.5C 273.01,234.518 271.177,229.851 268.5,225.5 Z"/></g>
<g><path style="opacity:0.549" fill="#78675f" d="M 226.5,225.5 C 233.745,224.963 236.578,228.296 235,235.5C 231.333,240.833 227.667,240.833 224,235.5C 223.024,231.673 223.857,228.34 226.5,225.5 Z M 228.5,227.5 C 232.737,228.963 233.903,231.63 232,235.5C 228.553,237.353 226.72,236.353 226.5,232.5C 226.437,230.486 227.103,228.819 228.5,227.5 Z"/></g>
<g><path style="opacity:0.863" fill="#6f6259" d="M 239.5,225.5 C 242.833,225.5 246.167,225.5 249.5,225.5C 248.428,229.471 246.428,232.971 243.5,236C 245.473,236.495 247.473,236.662 249.5,236.5C 249.5,237.5 249.5,238.5 249.5,239.5C 246.223,239.784 243.057,239.451 240,238.5C 241.376,235.271 243.209,232.104 245.5,229C 243.833,228.667 242.167,228.333 240.5,228C 239.748,227.329 239.414,226.496 239.5,225.5 Z"/></g>
<g><path style="opacity:1" fill="#826c61" d="M 250.5,247.5 C 256.791,247.412 262.958,248.079 269,249.5C 277.862,269.751 286.528,290.085 295,310.5C 295.839,313.14 295.339,315.473 293.5,317.5C 289.639,318.92 285.639,319.587 281.5,319.5C 275.151,318.459 268.817,318.459 262.5,319.5C 258.429,319.264 255.596,317.264 254,313.5C 248.924,301.683 243.591,290.017 238,278.5C 237.075,279.047 236.242,279.713 235.5,280.5C 228.896,293.542 221.896,306.375 214.5,319C 210.922,320.037 207.256,320.537 203.5,320.5C 193.838,319.921 184.171,319.421 174.5,319C 171.253,316.261 170.753,313.094 173,309.5C 184.374,289.252 195.874,269.085 207.5,249C 222.006,248.831 236.339,248.331 250.5,247.5 Z"/></g>
</svg>
