<?xml version="1.0" encoding="UTF-8"?>
<svg version="1.1" xmlns="http://www.w3.org/2000/svg" width="500" height="500">
<path d="M0 0 C1.3303125 0.86625 1.3303125 0.86625 2.6875 1.75 C15.05414 13.78240649 18.78820088 30.11711848 19.375 46.8125 C19.18647368 58.0738058 16.5143191 69.68090462 10 79 C9.21109375 80.13501953 9.21109375 80.13501953 8.40625 81.29296875 C-4.95131845 99.41676049 -28.08388048 107.1331501 -49.67578125 110.7734375 C-52.45909741 111.04475235 -55.20493796 111.01386416 -58 111 C-58.0093457 112.31194336 -58.01869141 113.62388672 -58.02832031 114.97558594 C-58.06819661 119.84376971 -58.13394913 124.71131995 -58.20751953 129.57910156 C-58.23574279 131.6857896 -58.25695056 133.7925838 -58.27099609 135.89941406 C-58.29240661 138.9282878 -58.3390476 141.95588331 -58.390625 144.984375 C-58.39185364 145.92617615 -58.39308228 146.86797729 -58.39434814 147.83831787 C-58.48087464 151.70249061 -58.54571542 154.24975282 -60.57128906 157.5949707 C-63.85787435 159.49628738 -66.77403205 159.55636661 -70.46875 159.49609375 C-71.5447345 159.4982766 -71.5447345 159.4982766 -72.64245605 159.50050354 C-74.15539624 159.49884741 -75.66835376 159.4873179 -77.18115234 159.46655273 C-79.49259234 159.43759281 -81.80173775 159.44594843 -84.11328125 159.45898438 C-85.58594861 159.45274647 -87.05860875 159.4443551 -88.53125 159.43359375 C-89.21989136 159.43652939 -89.90853271 159.43946503 -90.61804199 159.44248962 C-93.39685892 159.38805175 -95.65442354 159.15848317 -98.19326782 157.99415588 C-100.99065118 154.90658233 -100.46751713 151.63648303 -100.32763672 147.68945312 C-100.30359426 146.37820843 -100.30359426 146.37820843 -100.27906609 145.04047394 C-100.21283054 142.02561025 -100.10999839 139.01357572 -100 136 C-99.96264992 134.90771088 -99.92529984 133.81542175 -99.88681793 132.69003296 C-99.59692523 124.47585468 -99.23513643 116.26537163 -98.85428858 108.05499458 C-98.72358621 105.2286245 -98.59544342 102.40214019 -98.46714294 99.57566023 C-98.16463472 92.9156294 -97.85702276 86.25584765 -97.54638672 79.59619141 C-97.22675754 72.74114356 -96.91740434 65.88568217 -96.6126529 59.02995825 C-96.34901808 53.1090681 -96.07842615 47.18852267 -95.80237472 41.26819849 C-95.6382668 37.74626755 -95.47693856 34.22426437 -95.32263565 30.70188904 C-95.15113997 26.79360171 -94.96518271 22.88607663 -94.77783203 18.97851562 C-94.72891815 17.81807236 -94.68000427 16.65762909 -94.62960815 15.46202087 C-94.54975677 13.86898888 -94.54975677 13.86898888 -94.46829224 12.24377441 C-94.42588976 11.3221476 -94.38348728 10.40052078 -94.33979988 9.45096588 C-93.98310165 6.8781127 -93.37767329 5.19243065 -92 3 C-87.43043379 0.42634921 -81.83073254 -0.1497169 -76.73046875 -1.12890625 C-75.73549881 -1.32346909 -74.74052887 -1.51803192 -73.71540833 -1.7184906 C-71.61370624 -2.12839028 -69.51153563 -2.53589395 -67.40893555 -2.94116211 C-64.20831388 -3.5584855 -61.00935183 -4.18388545 -57.81054688 -4.81054688 C-55.76311433 -5.2088143 -53.71559112 -5.60661595 -51.66796875 -6.00390625 C-50.71875046 -6.18933487 -49.76953217 -6.37476349 -48.79154968 -6.56581116 C-30.98674219 -9.98526305 -15.52352908 -10.72273398 0 0 Z M-43.75 31.875 C-44.62527344 32.06191406 -45.50054687 32.24882812 -46.40234375 32.44140625 C-50.53068657 33.04698596 -50.53068657 33.04698596 -54 35 C-54.23003421 37.22964958 -54.39586992 39.46597227 -54.53515625 41.703125 C-54.57813339 42.37792908 -54.62111053 43.05273315 -54.66539001 43.74798584 C-54.75574555 45.18032507 -54.84386006 46.61280712 -54.92993164 48.04541016 C-55.06112985 50.22721457 -55.19887292 52.40852504 -55.33789062 54.58984375 C-55.87357659 62.78801124 -55.87357659 62.78801124 -56 71 C-45.2138955 70.29271446 -35.36587537 67.04403228 -27 60 C-22.71111948 55.0933306 -21.5844245 50.44142031 -22 44 C-23.18459165 38.83483198 -24.50381449 34.17377801 -29 31 C-34.02914215 29.23300411 -38.72890008 30.73828922 -43.75 31.875 Z M-26 81 C-25 83 -25 83 -25 83 Z M-88 116 C-88.33895656 117.72807318 -88.67091525 119.45751974 -89 121.1875 C-89.185625 122.15042969 -89.37125 123.11335937 -89.5625 124.10546875 C-90.06976261 126.97365311 -90.06976261 126.97365311 -90 129.80078125 C-90 130.52652344 -90 131.25226563 -90 132 C-90.33 132.33 -90.66 132.66 -91 133 C-92.84752843 139.04155282 -93.19946435 144.71687298 -93 151 C-91.02 151.66 -89.04 152.32 -87 153 C-87 140.79 -87 128.58 -87 116 C-87.33 116 -87.66 116 -88 116 Z " fill="#D4711C" transform="translate(412,162)"/>
<path d="M0 0 C3.0534668 -0.37231445 3.0534668 -0.37231445 6.94921875 -0.36328125 C7.64006058 -0.36377975 8.3309024 -0.36427826 9.04267883 -0.36479187 C10.50789253 -0.36244911 11.97311007 -0.35270859 13.43823242 -0.33618164 C15.6616703 -0.31277195 17.88389359 -0.31559578 20.10742188 -0.32226562 C32.87713293 -0.27228194 32.87713293 -0.27228194 39 2 C41.04569018 5.06853527 41.25126838 5.68668643 41.25878906 9.14379883 C41.26499771 9.98332092 41.27120636 10.82284302 41.27760315 11.68780518 C41.27365036 12.60164978 41.26969757 13.51549438 41.265625 14.45703125 C41.26839951 15.41542908 41.27117401 16.3738269 41.27403259 17.36126709 C41.2782214 20.51181964 41.26550838 23.66198633 41.25 26.8125 C41.24723053 27.88789032 41.24446106 28.96328064 41.24160767 30.07125854 C40.94142305 129.52288245 40.94142305 129.52288245 17 154 C2.62105292 166.13289257 -12.59220563 170.17983516 -31.22460938 168.65673828 C-43.4118089 167.33753563 -53.8482014 162.27003737 -62 153 C-70.07073405 142.0945786 -72.39676654 127.8193043 -72.53125 114.5390625 C-72 112 -72 112 -70.40625 110.19140625 C-67.19392548 108.60088843 -64.5815739 108.47763404 -61 108.3125 C-60.31808594 108.27906494 -59.63617188 108.24562988 -58.93359375 108.21118164 C-49.9628311 107.82502963 -40.97632777 107.91722649 -32 108 C-30.54160241 111.36877791 -29.673742 114.43968293 -29.125 118.0625 C-28.51376884 121.21739313 -28.05710774 122.91433839 -26.25 125.625 C-23.25439695 127.45564631 -21.46336231 127.42408518 -18 127 C-14.34851686 126.05775923 -14.34851686 126.05775923 -12.015625 123.3125 C-10.77153186 120.47979563 -9.60278139 117.64143901 -8.5 114.75 C-8.0771875 113.67234375 -7.654375 112.5946875 -7.21875 111.484375 C-3.42620869 99.27771191 -3.66608421 85.76245488 -3.47927856 73.10277367 C-3.4364602 70.22303733 -3.38251885 67.34368444 -3.32592773 64.46418762 C-3.18781872 57.33193826 -3.06701053 50.1994217 -2.94787598 43.0668335 C-2.84602953 36.99557458 -2.73656185 30.92455391 -2.61624146 24.85363197 C-2.56320176 22.01798693 -2.52155108 19.18231767 -2.48022461 16.34648132 C-2.44703821 14.61924116 -2.41329628 12.89201154 -2.37890625 11.16479492 C-2.37053741 10.37785248 -2.36216858 9.59091003 -2.35354614 8.78012085 C-2.26620936 5.00426778 -2.14520307 3.21780461 0 0 Z M13 71 C14.485 71.99 14.485 71.99 16 73 C16 72.34 16 71.68 16 71 C15.01 71 14.02 71 13 71 Z M27 94 C26.67 94.66 26.34 95.32 26 96 C26.66 96 27.32 96 28 96 C27.67 95.34 27.34 94.68 27 94 Z M14 122 C15 125 15 125 15 125 Z M0 136 C0.33 136.66 0.66 137.32 1 138 C1.33 137.34 1.66 136.68 2 136 C1.34 136 0.68 136 0 136 Z " fill="#40200A" transform="translate(126,152)"/>
<path d="M0 0 C2.88003172 0.89947018 4.83875393 2.08411683 7.29296875 3.83325195 C8.15664063 4.44362305 9.0203125 5.05399414 9.91015625 5.68286133 C10.79960937 6.32416992 11.6890625 6.96547852 12.60546875 7.6262207 C13.49492187 8.25592773 14.384375 8.88563477 15.30078125 9.53442383 C27.17468182 17.97907102 27.17468182 17.97907102 28.60546875 20.7512207 C28.60546875 26.154683 22.77128782 31.77364942 19.66796875 36.0012207 C13.59755488 44.34665723 7.77808679 52.8254782 2.14648438 61.47241211 C0.50759229 63.96242717 -1.16889309 66.42465932 -2.84765625 68.88793945 C-3.96847259 70.57085122 -5.08829143 72.25442782 -6.20703125 73.9387207 C-7.00862671 75.09295532 -7.00862671 75.09295532 -7.82641602 76.27050781 C-8.30908936 77.00922119 -8.7917627 77.74793457 -9.2890625 78.5090332 C-9.72065674 79.14856934 -10.15225098 79.78810547 -10.59692383 80.44702148 C-11.87529287 83.67402956 -11.87529287 83.67402956 -10.39453125 90.8137207 C-28.21453125 90.8137207 -46.03453125 90.8137207 -64.39453125 90.8137207 C-63.73453125 89.1637207 -63.07453125 87.5137207 -62.39453125 85.8137207 C-61.3456452 82.77151593 -60.99665476 80.79863579 -62.21923828 77.7722168 C-63.54886836 75.29049094 -64.98001938 72.89819739 -66.45703125 70.5012207 C-67.56409473 68.63888651 -68.66949012 66.77555998 -69.7734375 64.91137695 C-70.36141113 63.9279834 -70.94938477 62.94458984 -71.55517578 61.93139648 C-74.76610194 56.48893205 -77.82313075 50.96072836 -80.89453125 45.4387207 C-82.05023561 43.36810356 -83.20645726 41.29777503 -84.36328125 39.2277832 C-84.88664063 38.28942627 -85.41 37.35106934 -85.94921875 36.38427734 C-87.19267427 34.17273289 -88.4596696 31.97766667 -89.73828125 29.78637695 C-91.5053344 26.61484995 -92.39453125 24.45263337 -92.39453125 20.8137207 C-88.03353839 15.62397112 -81.8442295 12.82767462 -76.01953125 9.5637207 C-74.89546875 8.9140332 -73.77140625 8.2643457 -72.61328125 7.5949707 C-71.52273437 6.98137695 -70.4321875 6.3677832 -69.30859375 5.7355957 C-68.31811035 5.17453125 -67.32762695 4.6134668 -66.30712891 4.03540039 C-62.96824705 2.63491717 -60.97122369 2.19891037 -57.39453125 2.8137207 C-54.32108064 5.85524916 -52.38674545 9.39893239 -50.37109375 13.20043945 C-49.82453125 14.22202148 -49.27796875 15.24360352 -48.71484375 16.29614258 C-48.15539062 17.35381836 -47.5959375 18.41149414 -47.01953125 19.5012207 C-43.00073785 27.06462743 -38.88361415 34.51769204 -34.39453125 41.8137207 C-31.79601064 39.31640051 -29.58875156 36.85614893 -27.58203125 33.86450195 C-27.06946777 33.10645264 -26.5569043 32.34840332 -26.02880859 31.56738281 C-25.48949707 30.76179932 -24.95018555 29.95621582 -24.39453125 29.1262207 C-23.24177819 27.42509455 -22.088111 25.72458754 -20.93359375 24.0246582 C-20.34868164 23.16195312 -19.76376953 22.29924805 -19.16113281 21.41040039 C-16.39081591 17.33838676 -13.59063434 13.28818073 -10.76953125 9.2512207 C-10.27324219 8.53168213 -9.77695312 7.81214355 -9.265625 7.07080078 C-8.80027344 6.40717529 -8.33492188 5.7435498 -7.85546875 5.05981445 C-7.45118652 4.47901123 -7.0469043 3.89820801 -6.63037109 3.29980469 C-4.62329429 0.88631664 -3.17308905 -0.24684614 0 0 Z " fill="#40200A" transform="translate(276.39453125,151.186279296875)"/>
<path d="M0 0 C15.18 0 30.36 0 46 0 C45.02090776 3.91636896 43.69818096 6.69390498 41.796875 10.234375 C41.47720764 10.83123108 41.15754028 11.42808716 40.82818604 12.04302979 C40.15108961 13.30489317 39.47181992 14.56559251 38.79052734 15.82519531 C37.76246164 17.72694802 36.74201835 19.63263323 35.72265625 21.5390625 C26.11428139 39.44285931 26.11428139 39.44285931 23 41 C20.18860991 41.06531153 17.40754333 41.06969504 14.59765625 41.01953125 C13.76415146 41.00540695 12.93064667 40.99128265 12.07188416 40.97673035 C10.30738263 40.94359363 8.54293913 40.90723523 6.77856445 40.86791992 C4.07695199 40.81279489 1.37583608 40.78418747 -1.32617188 40.75585938 C-3.03909743 40.72039895 -4.75199084 40.68334251 -6.46484375 40.64453125 C-7.2742894 40.64016556 -8.08373505 40.63579987 -8.91770935 40.63130188 C-12.24017199 40.53020438 -14.44555191 40.44052305 -17.09594727 38.3347168 C-18.33958974 35.12300926 -17.92220461 33.29910673 -17 30 C-15.7565918 27.31860352 -15.7565918 27.31860352 -14.19921875 24.62890625 C-13.63396484 23.64212891 -13.06871094 22.65535156 -12.48632812 21.63867188 C-11.89271484 20.62353516 -11.29910156 19.60839844 -10.6875 18.5625 C-10.10548828 17.55123047 -9.52347656 16.53996094 -8.92382812 15.49804688 C-7.83051993 13.59992517 -6.7335485 11.70390492 -5.6315918 9.81079102 C-3.73858525 6.54965314 -1.87081186 3.27392075 0 0 Z M13 18 C12.67 18.66 12.34 19.32 12 20 C12.99 19.67 13.98 19.34 15 19 C14.34 18.67 13.68 18.34 13 18 Z " fill="#40210A" transform="translate(190,280)"/>
<path d="M0 0 C5.90812542 -0.12362482 11.81549774 -0.2143513 17.72460938 -0.2746582 C19.7345084 -0.29979816 21.74431605 -0.33391529 23.75390625 -0.37719727 C26.64345844 -0.43787215 29.53180192 -0.46621447 32.421875 -0.48828125 C33.31992859 -0.51408768 34.21798218 -0.5398941 35.14324951 -0.56648254 C41.38379219 -0.56928632 41.38379219 -0.56928632 44.53613281 2.34301758 C46.23735461 5.43080892 47.13768909 8.44205444 48.1875 11.8125 C49.96482799 17.26952212 52.42725873 22.39724334 54.890625 27.5703125 C56.1725959 31.53358875 56.02042871 33.98831456 55 38 C50.31597087 40.34201456 43.3205544 39.3119143 38.11523438 39.35009766 C36.45851603 39.36666484 34.80186939 39.3939654 33.14550781 39.43212891 C30.75548282 39.4869023 28.36713057 39.50876874 25.9765625 39.5234375 C25.23789948 39.54610687 24.49923645 39.56877625 23.7381897 39.59213257 C20.17336258 39.5774923 18.39531086 39.35831653 15.71728516 36.9309082 C13.74893397 33.57150303 12.07538661 30.15663444 10.546875 26.58203125 C10.24179016 25.8835759 9.93670532 25.18512054 9.62237549 24.46549988 C8.98356784 22.99883271 8.34842894 21.53056267 7.71679688 20.06079102 C6.74699782 17.80551841 5.76509578 15.55581595 4.78125 13.30664062 C4.16074544 11.87791357 3.54092912 10.44888736 2.921875 9.01953125 C2.62819031 8.34557816 2.33450562 7.67162506 2.03192139 6.97724915 C0 2.23238745 0 2.23238745 0 0 Z M36 9 C37 11 37 11 37 11 Z " fill="#40210B" transform="translate(240,280)"/>
<path d="M0 0 C4.31392226 0.4793247 6.16569547 1.7457985 9 5 C9.4125 4.175 9.825 3.35 10.25 2.5 C10.8275 1.675 11.405 0.85 12 0 C13.32 0 14.64 0 16 0 C16 4.95 16 9.9 16 15 C14.68 15 13.36 15 12 15 C11.67 14.34 11.34 13.68 11 13 C10.01 14.485 10.01 14.485 9 16 C8.01 15.67 7.02 15.34 6 15 C5.67 14.34 5.34 13.68 5 13 C4.01 14.485 4.01 14.485 3 16 C2.01 16 1.02 16 0 16 C-1.06795656 10.42289352 -0.82622671 5.60563042 0 0 Z " fill="#391E0C" transform="translate(192,253)"/>
<path d="M0 0 C0.33 0 0.66 0 1 0 C0.835 0.969375 0.67 1.93875 0.5 2.9375 C-0.13396273 7.29487763 -0.0896672 11.60630704 0 16 C1.32 16.66 2.64 17.32 4 18 C2.02 18 0.04 18 -2 18 C-2.66 16.02 -3.32 14.04 -4 12 C-4.99 12.33 -5.98 12.66 -7 13 C-6.34 15.64 -5.68 18.28 -5 21 C-0.35524041 21.04944066 4.28936596 21.08573863 8.93432617 21.10986328 C10.51443144 21.11992041 12.0945181 21.13356785 13.67456055 21.15087891 C15.9458475 21.17514022 18.21688836 21.18648582 20.48828125 21.1953125 C21.19463211 21.20563507 21.90098297 21.21595764 22.6287384 21.22659302 C26.32197792 21.22743775 27.83919216 21.10720523 31 19 C31 20.32 31 21.64 31 23 C28.02857208 24.48571396 24.98609106 24.18330624 21.7265625 24.203125 C21.00640961 24.20882507 20.28625671 24.21452515 19.54428101 24.22039795 C18.01944447 24.22984835 16.49458751 24.23638209 14.96972656 24.24023438 C12.64091188 24.24993373 10.31298224 24.2809524 7.984375 24.3125 C6.50260941 24.31903087 5.0208375 24.32428101 3.5390625 24.328125 C2.84414703 24.3404718 2.14923157 24.3528186 1.43325806 24.36553955 C-1.59404812 24.3516462 -3.74105017 24.13438416 -6.44677734 22.73022461 C-8.32508981 20.63786364 -8.47410462 19.76397854 -8.390625 16.98828125 C-8.37773437 16.23095703 -8.36484375 15.47363281 -8.3515625 14.69335938 C-8.31804687 13.90767578 -8.28453125 13.12199219 -8.25 12.3125 C-8.23195313 11.51521484 -8.21390625 10.71792969 -8.1953125 9.89648438 C-8.14822247 7.93047551 -8.07647899 5.96508506 -8 4 C-7.01 4.33 -6.02 4.66 -5 5 C-5 5.66 -5 6.32 -5 7 C-4.01 7 -3.02 7 -2 7 C-1.855625 6.030625 -1.71125 5.06125 -1.5625 4.0625 C-1 1 -1 1 0 0 Z " fill="#C2712D" transform="translate(320,297)"/>
<path d="M0 0 C7.29064039 -0.36453202 7.29064039 -0.36453202 10.25 1.15625 C12 3 12 3 12.390625 5.69921875 C12.32101562 7.17841797 12.32101562 7.17841797 12.25 8.6875 C12.21390625 9.68136719 12.1778125 10.67523438 12.140625 11.69921875 C12.07101562 12.83810547 12.07101562 12.83810547 12 14 C8.20129266 16.12157386 5.35713932 16.24663053 1 16 C0 15 0 15 -0.09765625 11.62109375 C-0.09098369 10.22652923 -0.07902532 8.83198257 -0.0625 7.4375 C-0.05798828 6.72658203 -0.05347656 6.01566406 -0.04882812 5.28320312 C-0.03700864 3.52209987 -0.01907263 1.76103964 0 0 Z M4 4 C4 4.66 4 5.32 4 6 C4.99 6 5.98 6 7 6 C7 5.34 7 4.68 7 4 C6.01 4 5.02 4 4 4 Z M5 9 C5 12 5 12 5 12 Z M7 10 C8 12 8 12 8 12 Z " fill="#391C0B" transform="translate(249,253)"/>
<path d="M0 0 C3.375 1.125 3.375 1.125 5.375 3.3125 C6.5968339 6.74890783 6.36002079 8.63954184 5.375 12.125 C3.375 15.125 3.375 15.125 0.0625 16.125 C-3.625 16.125 -3.625 16.125 -6.5625 14.0625 C-8.625 11.125 -8.625 11.125 -9.25 8.125 C-8.11656365 2.68450551 -5.57479333 0.19223425 0 0 Z M-2.625 4.125 C-3.82338209 6.45354463 -3.82338209 6.45354463 -4.625 9.125 C-3.635 10.61 -3.635 10.61 -2.625 12.125 C-1.305 11.795 0.015 11.465 1.375 11.125 C1.375 9.145 1.375 7.165 1.375 5.125 C0.055 4.795 -1.265 4.465 -2.625 4.125 Z " fill="#381E0D" transform="translate(221.625,252.875)"/>
<path d="M0 0 C3.63 0 7.26 0 11 0 C10.1302743 4.34862851 9.0525056 7.16270693 7 11 C8.32 11.33 9.64 11.66 11 12 C10.67 13.32 10.34 14.64 10 16 C6.7 16 3.4 16 0 16 C-0.33 15.01 -0.66 14.02 -1 13 C0.21484375 10.73828125 0.21484375 10.73828125 1.9375 8.3125 C2.50339844 7.50425781 3.06929687 6.69601562 3.65234375 5.86328125 C4.09707031 5.24839844 4.54179687 4.63351562 5 4 C3.02 4 1.04 4 -1 4 C-0.67 2.68 -0.34 1.36 0 0 Z " fill="#391B0D" transform="translate(233,253)"/>
<path d="M0 0 C0.33 0.66 0.66 1.32 1 2 C2.32 1.34 3.64 0.68 5 0 C5.33 1.32 5.66 2.64 6 4 C5.01 4 4.02 4 3 4 C3.763125 4.268125 4.52625 4.53625 5.3125 4.8125 C7.91229902 5.9612484 9.10215992 6.9685876 11 9 C-5.70842825 14.55580866 -5.70842825 14.55580866 -14 15 C-14 14.01 -14 13.02 -14 12 C-10.33694766 11.25073929 -7.57644848 10.7619986 -4 12 C-4 11.34 -4 10.68 -4 10 C-3.34 9.67 -2.68 9.34 -2 9 C-2 7.68 -2 6.36 -2 5 C-2.66 4.67 -3.32 4.34 -4 4 C-3.01 3.67 -2.02 3.34 -1 3 C-0.67 2.01 -0.34 1.02 0 0 Z " fill="#D37321" transform="translate(376,257)"/>
<path d="M0 0 C1.9375 0.25 1.9375 0.25 4 1 C4.66 1.99 5.32 2.98 6 4 C6.4125 3.34 6.825 2.68 7.25 2 C7.8275 1.34 8.405 0.68 9 0 C10.32 0 11.64 0 13 0 C12.45276317 3.37462715 11.9451 5.08235 10 8 C9.60612212 10.32387947 9.26513915 12.65793749 9 15 C7.68 15.33 6.36 15.66 5 16 C4.72736328 15.12988281 4.72736328 15.12988281 4.44921875 14.2421875 C2.9581894 9.60852707 1.31666424 5.30237645 -1 1 C-0.67 0.67 -0.34 0.34 0 0 Z " fill="#C4732D" transform="translate(266,253)"/>
<path d="M0 0 C5.68965098 5.68965098 6.125 17.58754002 6.125 25.3125 C6.08375 26.199375 6.0425 27.08625 6 28 C3.5 26.8125 3.5 26.8125 1 25 C0.6875 22.3125 0.6875 22.3125 1 20 C1.66 20 2.32 20 3 20 C3.33 18.68 3.66 17.36 4 16 C3.34 16 2.68 16 2 16 C0.95414607 12.60097473 1 9.53855521 1 6 C0.70285977 3.99430341 0.37938617 1.99177741 0 0 Z " fill="#C37335" transform="translate(425,181)"/>
<path d="M0 0 C1.4540625 0.0309375 1.4540625 0.0309375 2.9375 0.0625 C-2.72603276 5.72603276 -14.31129984 6.52793447 -22.0625 7.0625 C-22.0625 6.0725 -22.0625 5.0825 -22.0625 4.0625 C-18.39944766 3.31323929 -15.63894848 2.8244986 -12.0625 4.0625 C-12.0625 3.4025 -12.0625 2.7425 -12.0625 2.0625 C-10.01171875 1.83463542 -7.9609375 1.60677083 -5.91015625 1.37890625 C-3.00452994 0.88132542 -3.42063662 0.06980891 0 0 Z " fill="#C27234" transform="translate(384.0625,264.9375)"/>
<path d="M0 0 C2.02350324 3.03525486 2.32124018 4.19426202 2.625 7.6875 C2.69976562 8.49574219 2.77453125 9.30398437 2.8515625 10.13671875 C2.92503906 11.05904297 2.92503906 11.05904297 3 12 C3.99 11.67 4.98 11.34 6 11 C6.33 12.65 6.66 14.3 7 16 C6.01 16 5.02 16 4 16 C3.34 15.34 2.68 14.68 2 14 C1.34 15.32 0.68 16.64 0 18 C-0.66 18 -1.32 18 -2 18 C-1.67 17.071875 -1.34 16.14375 -1 15.1875 C0.45989695 10.19095127 0.16784802 5.1566642 0 0 Z " fill="#C97331" transform="translate(389,202)"/>
<path d="M0 0 C2 2 2 2 2 6 C3.32 6.33 4.64 6.66 6 7 C4.02 7.99 4.02 7.99 2 9 C2.33 10.98 2.66 12.96 3 15 C2.34 15 1.68 15 1 15 C1 16.65 1 18.3 1 20 C0.67 20 0.34 20 0 20 C0 13.4 0 6.8 0 0 Z " fill="#BF7639" transform="translate(313,276)"/>
<path d="M0 0 C4.97093824 0.41153737 9.44508386 0.79600832 14 3 C13.67 3.66 13.34 4.32 13 5 C11.906875 4.814375 10.81375 4.62875 9.6875 4.4375 C6.06375867 3.7421932 6.06375867 3.7421932 3 5 C0.8125 4.0625 0.8125 4.0625 -1 3 C-0.67 2.01 -0.34 1.02 0 0 Z " fill="#CD742A" transform="translate(390,154)"/>
<path d="M0 0 C2.475 0.495 2.475 0.495 5 1 C5.6875 2.8125 5.6875 2.8125 6 5 C4.26165827 7.25984425 2.40298607 8.39800928 0 10 C0 6.7 0 3.4 0 0 Z " fill="#3E210C" transform="translate(192,253)"/>
<path d="M0 0 C0.33 0 0.66 0 1 0 C1 6.27 1 12.54 1 19 C0.01 18.67 -0.98 18.34 -2 18 C-1.85980308 15.18711295 -1.71312045 12.37483115 -1.5625 9.5625 C-1.52318359 8.76005859 -1.48386719 7.95761719 -1.44335938 7.13085938 C-1.11328125 1.11328125 -1.11328125 1.11328125 0 0 Z " fill="#C67437" transform="translate(356,208)"/>
<path d="M0 0 C0.66 0.99 1.32 1.98 2 3 C3.32 3 4.64 3 6 3 C5.67 3.99 5.34 4.98 5 6 C1.52674819 7.1577506 -1.36067448 7.06866652 -5 7 C-5 6.01 -5 5.02 -5 4 C-4.01 4.33 -3.02 4.66 -2 5 C-1.67 4.01 -1.34 3.02 -1 2 C-0.67 1.34 -0.34 0.68 0 0 Z " fill="#311609" transform="translate(255,262)"/>
<path d="M0 0 C1.65 0 3.3 0 5 0 C5.66 1.32 6.32 2.64 7 4 C4.44931155 6.35448165 3.28982642 6.98327924 -0.25 7.1875 C-1.1575 7.125625 -2.065 7.06375 -3 7 C-2.01 6.34 -1.02 5.68 0 5 C0.25030977 2.41619823 0.25030977 2.41619823 0 0 Z " fill="#321908" transform="translate(210,314)"/>
<path d="M0 0 C0.66 1.32 1.32 2.64 2 4 C2.66 4 3.32 4 4 4 C4.33 5.32 4.66 6.64 5 8 C4.01 8 3.02 8 2 8 C1.67 8.66 1.34 9.32 1 10 C1 9.34 1 8.68 1 8 C0.34 8 -0.32 8 -1 8 C-1 7.34 -1 6.68 -1 6 C-1.99 5.67 -2.98 5.34 -4 5 C-2.68 4.34 -1.36 3.68 0 3 C0 2.01 0 1.02 0 0 Z " fill="#391807" transform="translate(276,281)"/>
<path d="M0 0 C-0.67407408 4.21296303 -2.77463013 7.42592112 -5 11 C-5.99 11.495 -5.99 11.495 -7 12 C-7.625 10.125 -7.625 10.125 -8 8 C-7.34 7.34 -6.68 6.68 -6 6 C-5.67 6.33 -5.34 6.66 -5 7 C-4.87625 6.030625 -4.7525 5.06125 -4.625 4.0625 C-4.41875 3.051875 -4.2125 2.04125 -4 1 C-2 0 -2 0 0 0 Z " fill="#CC752E" transform="translate(425,233)"/>
<path d="M0 0 C0.33 0.99 0.66 1.98 1 3 C1.66 3 2.32 3 3 3 C3 5.31 3 7.62 3 10 C0.5 8.8125 0.5 8.8125 -2 7 C-2.3125 4.3125 -2.3125 4.3125 -2 2 C-1.34 2 -0.68 2 0 2 C0 1.34 0 0.68 0 0 Z " fill="#C97A2A" transform="translate(428,199)"/>
<path d="M0 0 C0.66 0.33 1.32 0.66 2 1 C1 4 1 4 -1 5 C-3.55157655 5.0716735 -6.07472971 5.09308442 -8.625 5.0625 C-9.33140625 5.05798828 -10.0378125 5.05347656 -10.765625 5.04882812 C-12.51045275 5.03703875 -14.255237 5.01910324 -16 5 C-16 4.67 -16 4.34 -16 4 C-11.38 4 -6.76 4 -2 4 C-1.34 2.68 -0.68 1.36 0 0 Z " fill="#C2763A" transform="translate(350,316)"/>
<path d="M0 0 C0.33 0.66 0.66 1.32 1 2 C-8.41002278 4.29612756 -8.41002278 4.29612756 -13 4 C-12 2 -12 2 -8.75 0.875 C-5.62299365 0.14536518 -3.17377095 -0.19234975 0 0 Z " fill="#C46F32" transform="translate(376,191)"/>
<path d="M0 0 C1.32 0.33 2.64 0.66 4 1 C4.33 2.65 4.66 4.3 5 6 C4.01 6.33 3.02 6.66 2 7 C0 5 0 5 -0.125 2.375 C-0.08375 1.59125 -0.0425 0.8075 0 0 Z " fill="#371B05" transform="translate(121,252)"/>
<path d="M0 0 C-0.99 1.32 -1.98 2.64 -3 4 C-3 3.34 -3 2.68 -3 2 C-4.98 2 -6.96 2 -9 2 C-9 1.34 -9 0.68 -9 0 C-5.62182575 -0.84454356 -3.32534757 -1.10844919 0 0 Z " fill="#C87630" transform="translate(335,163)"/>
<path d="M0 0 C0.33 0 0.66 0 1 0 C0.53199289 4.05606165 0.12046792 7.46588679 -2 11 C-2.25 3.375 -2.25 3.375 0 0 Z " fill="#BF7031" transform="translate(320,297)"/>
<path d="M0 0 C2.0625 0.4375 2.0625 0.4375 4 1 C4 1.99 4 2.98 4 4 C3.67 4.33 3.34 4.66 3 5 C2.67 5.66 2.34 6.32 2 7 C1.01 5.02 0.02 3.04 -1 1 C-0.67 0.67 -0.34 0.34 0 0 Z " fill="#B57235" transform="translate(266,253)"/>
<path d="M0 0 C3.3 0 6.6 0 10 0 C5.78492722 3.16130459 4.93928888 3.3367697 0 3 C0 2.01 0 1.02 0 0 Z " fill="#C47631" transform="translate(355,232)"/>
<path d="M0 0 C0.99 0.99 1.98 1.98 3 3 C2.67 3.66 2.34 4.32 2 5 C1.34 4.67 0.68 4.34 0 4 C-0.33 4.99 -0.66 5.98 -1 7 C-1.66 5.02 -2.32 3.04 -3 1 C-2.01 0.67 -1.02 0.34 0 0 Z " fill="#C8732A" transform="translate(389,194)"/>
<path d="M0 0 C0.33 0.99 0.66 1.98 1 3 C0.01 3.33 -0.98 3.66 -2 4 C-1 1 -1 1 0 0 Z " fill="#1F0000" transform="translate(221,260)"/>
<path d="" fill="#000000" transform="translate(0,0)"/>
<path d="" fill="#000000" transform="translate(0,0)"/>
<path d="" fill="#000000" transform="translate(0,0)"/>
<path d="" fill="#000000" transform="translate(0,0)"/>
<path d="" fill="#000000" transform="translate(0,0)"/>
<path d="" fill="#7F7F7F" transform="translate(0,0)"/>
<path d="" fill="#000000" transform="translate(0,0)"/>
<path d="" fill="#000000" transform="translate(0,0)"/>
<path d="" fill="#000000" transform="translate(0,0)"/>
</svg>
